PathFileType	4	(X/Y/Z)	path1_08_0-572.trc
DataRate	CameraRate	NumFrames	NumMarkers	Units	OrigDataRate	OrigDataStartFrame	OrigNumFrames
30	30	5	22	m	30	71	572
Frame#	Time	Hip			RHip			RKnee			RAnkle			RBigToe			RSmallToe			RHeel			LHip			LKnee			LAnkle			LBigToe			LSmallToe			LHeel			Neck			Head			Nose			RShoulder			RElbow			RWrist			LShoulder			LElbow			LWrist		
		X1	Y1	Z1	X2	Y2	Z2	X3	Y3	Z3	X4	Y4	Z4	X5	Y5	Z5	X6	Y6	Z6	X7	Y7	Z7	X8	Y8	Z8	X9	Y9	Z9	X10	Y10	Z10	X11	Y11	Z11	X12	Y12	Z12	X13	Y13	Z13	X14	Y14	Z14	X15	Y15	Z15	X16	Y16	Z16	X17	Y17	Z17	X18	Y18	Z18	X19	Y19	Z19	X20	Y20	Z20	X21	Y21	Z21	X22	Y22	Z22
72	2.4	2.442683853544838	0.8414055367490468	0.9509311429790499	2.452683275725717	0.803645318718804	0.8756241669695425	2.4168748965861386	0.47348191303475223	0.8621380493880816	2.458959706690547	0.11219443400298793	0.8757226853958712	2.2816877184890454	0.028458689265802965	0.8490934549126933	2.327516643907114	0.02444889613195916	0.7969934413932913	2.506628131174737	0.03438833533192268	0.8985596491118081	2.4411165154551537	0.7989975892821297	1.0379916913627936	2.429509186626338	0.4526461275918432	1.0409748567865686	2.4574787955538495	0.11035019404575168	1.0255901088554777	2.3111827286396283	0.019238765095702038	1.0603824960549277	2.3578713326422314	0.023830285339441697	1.1117144001739048	2.499176690025003	0.039262596192275456	1.023651413009392	2.403834943036327	1.457077525007939	0.9580472838425512	2.3480355350642093	1.6925271032072045	0.9478354357841656	2.283623978957223	1.6006287184153156	0.9399307722445449	2.474449872604751	1.373943628921323	0.8035285562946091	2.4959826793379873	1.0751295319680159	0.7892871183932779	2.44887465439157	0.8511799547414864	0.7457714147756255	2.4446967185798028	1.35017709865147	1.1105648766481389	2.4837184015918665	1.064923319289568	1.1537579823384438	2.469617382281291	0.8315511691791184	1.1495419381439023
73	2.433333333333333	2.442002921397806	0.8412132030087855	0.95064771575445	2.4516968960590764	0.803267400663896	0.8752565471089536	2.416714502712455	0.4734474315520868	0.8620043390514757	2.4587440776148286	0.11222458496340348	0.8754589805246428	2.2818689006753945	0.02859518605927711	0.8489956979368434	2.32732418220547	0.024701896293670977	0.7965746664688789	2.506520098116858	0.03436074546153022	0.8987857652464503	2.4404531751480483	0.7986042645004845	1.0380581287070512	2.4284818049124985	0.45300824557410946	1.0397945683272902	2.457500401764761	0.11006640081594456	1.0255347559324826	2.313179077739369	0.018621574588941023	1.0612016708389753	2.357860844114106	0.02403934214135278	1.1120903883279705	2.499567395524656	0.038933203482546086	1.0231050942970021	2.4048817611513145	1.458053934204794	0.9590682721813826	2.3470209513597355	1.6922558366710811	0.9492575542631179	2.282987513964519	1.600941193375634	0.9407045638031661	2.4741196797622385	1.3740557124085973	0.8036138603216754	2.4945450877264257	1.0755328736370346	0.7873867195978382	2.4477233288058047	0.8511314160898218	0.7458950935323919	2.444535197347903	1.3500799238271106	1.1107495575486128	2.4837527566302997	1.0651319757085762	1.1532519083610246	2.4702190929817984	0.8312134356659228	1.1490523450995456
74	2.466666666666667	2.441434625346129	0.8407625684997845	0.9504417610812227	2.4509744328649643	0.8029835035656359	0.8747057047590936	2.4165963697781785	0.47337857322476284	0.8619552367987411	2.458647617489809	0.11237835419308935	0.8752354736501098	2.2821216316193027	0.028719312789186456	0.8488726225753267	2.327340470258965	0.024893554539013082	0.7961412061683052	2.506364980407498	0.03436870154784376	0.8990558957548251	2.439807729629733	0.7983123456144338	1.0381876616568224	2.42778205818459	0.4529667091636656	1.0390186752244455	2.457476040677182	0.10995744719714068	1.0254075542535397	2.3150152288212626	0.018100178860145998	1.0620182462718133	2.3582782551061974	0.024192034362342775	1.1124751544086906	2.499950153376093	0.03867202172435032	1.0225093496964999	2.4055604693741772	1.4587729563720846	0.9597113992827879	2.3471051977279807	1.693014202525783	0.9490811460688566	2.2822608143587515	1.600801988068372	0.9415683045324442	2.4738179292558566	1.3741182919999124	0.8033505070876374	2.4931066178552426	1.0758651449490393	0.7853887892836031	2.4466026236840483	0.8507764772279236	0.7460143844162741	2.444277650941783	1.3499869449800435	1.1109233413250397	2.4838834568404784	1.0651862341462435	1.1527537962518468	2.470701666387969	0.8305316321978666	1.1484421453702927
75	2.5	2.441138771798657	0.8401373263090571	0.9504125376388072	2.4506275524562926	0.802884487456723	0.8740046136618572	2.416533506063166	0.4733418869620648	0.8619689642214973	2.458626383085582	0.1126244669370454	0.8750790455477037	2.282331485702066	0.02883517572024565	0.8488445140101835	2.3274507890957365	0.025007191367785366	0.7957291356761396	2.5062324896845705	0.034412566046223995	0.8992809369641315	2.439269301736802	0.7981461102998746	1.0382718817895684	2.427501826763081	0.4525798947969756	1.0387160076312796	2.4573028095545375	0.11003948420434495	1.025256451074755	2.316509646010503	0.017620669740851837	1.062705699339162	2.3591490859876996	0.024153305359142875	1.1127971881874712	2.50016181191199	0.038556818502303185	1.0219659047356064	2.4056881340855654	1.459087033922999	0.9599075462849129	2.3477720837359772	1.6942776741941608	0.9479436209590613	2.2813404289394263	1.6000502534477767	0.9425196897237991	2.47352838495896	1.374106295174723	0.8027209733508524	2.492364527258526	1.0759989711474724	0.7845071607315793	2.4456803081412533	0.8502397786833727	0.7461596719045078	2.4439488634127926	1.3499717352197789	1.1110176938615435	2.484048991833209	1.0651006439225152	1.152347903460055	2.47096500651378	0.8297157592969908	1.1478623441103777
76	2.533333333333333	2.441075825247205	0.839524957886124	0.9505281437675044	2.450542451163079	0.8028874569359521	0.8732602937928167	2.4164975224416354	0.4733540503079624	0.8619563868840311	2.4585876071311805	0.1128588682170014	0.874979741635644	2.282486548332282	0.0288983973101439	0.8489384576720957	2.327537458707332	0.025048425599603828	0.7953385086870126	2.506208814025828	0.03446228188119567	0.8993545124735076	2.4389070493852407	0.7979464631035598	1.03818848098213	2.428224684429433	0.45138586935421665	1.0395990119429912	2.457158299369185	0.11019633677293784	1.025083893867458	2.317596087274424	0.017179496808860016	1.0631846013858055	2.3602621393838334	0.0239127318477623	1.113030349591131	2.500295143513783	0.03858569582134796	1.0215333960569704	2.405617719230243	1.4592975540609585	0.9599270667179239	2.3477808229976445	1.6948283856753088	0.9475416023384295	2.279947021673436	1.598676544803301	0.9435648316536929	2.4732502179825233	1.3739834883534856	0.8019080304050408	2.4927006045464184	1.0758609276804472	0.785492195667314	2.445026666344334	0.8497089593576765	0.7463694757411776	2.443627330790355	1.3500487441683158	1.1109621068773001	2.484146470578509	1.0650014794851286	1.1520719827268475	2.471093800038837	0.829237540084493	1.1475166068712759
